<svg id="Layer_2" data-name="Layer 2" xmlns="http://www.w3.org/2000/svg" viewBox="0 0 422.4 439.3">
  <g id="Layer_1-2" data-name="Layer 1">
    <path d="M220.3,201.47l-133.59,90.15c-16.99,7.48-36.54,16.38-51.83,23.04-4.96,2.08-7.73,3.65-11.09,4.78.64-1.34,18.64-33.73,23.05-60.63,5.23-25.31-27.88-32.9-46.54-34.9-4.25-.1,37.24-10.42,52.73-11.12,52.34-.9,34.81-23.82,5.05-46.93-4.51-3.48-7.22-5.2-9.61-6.95,4.03.56,60.9,10.75,91.91,30.43,1.09.66,3.59,2.46,4.19,1.28-2.1-18.94-10.52-47.01-21.75-53.92-18.74-11.91-55.15,12.21-63.41-6.4-2.69-6.28-6.68-13.45-12.84-17.16-11.22-6.92-22.57.62-22.75-12.9.44-6.89-.01-17.37,9.22-17.57,6.44-.28,13.55,2.14,20.01,3.35,10.44,2.04,17.54-.85,27.12-.65,3.82-.04,7.94.97,11.74.79,9.13-1.51,18.01-8.55,26.29-11.81,1.8-.67.27,1.31-.49,1.97-15.37,13.89,2.06,31.51,16.15,42.71,10.12,6.93,15.55,16.47,23.98,29.79,1.74,2.45,1.81-.25,1.76-1.74-.39-17.06.14-46.22,4.06-58.69,4.42-10.34,11.19-26.07,10.79-34.13.26-9.27-3.42-17.59-12.89-19.29-.97-.33-3.37-1.17-1.57-1.54,8.81-1.03,20.07,1.08,28.85-1.84,3.87-1.87,7.37-5.03,11.29-6.86,8.03-4.15,15.11-5.05,23.01-11.41,5.14-4.1,10.3-9.53,16.14-12.31,8.24-4.11,12.75,5.31,16.35,11.23,6.12,11.98-7.27,10.69-13.99,21.86-1.96,3.18-3.06,7.4-3.47,11.1-.47,3.93-.11,6.69.02,10.24,1.34,20.04-40.76,16.07-52.58,34.45-7.89,15.53-1.63,33.07,4.05,56.06,1.73,4.7,2.32,10.57,5.27,14.29,1.86,1.02,3.62-2.06,4.7-3.47,9.71-13.95,14.28-19.58,25.47-26.76,14.29-10.24,30.57-26.33,16.95-40.12-6.17-7.11,11.21,5,12.83,5.63,11.94,7.9,14.57,4.81,27.14,5.69,8.31.86,14.37,3.28,23.82,2.03,6.42-.81,13.66-2.77,20.01-2.17,9.33.64,8.34,11.12,8.33,18.11-.98,13.28-11.54,5.53-22.95,11.24-5.9,2.92-10.58,9.16-13.36,14.78-10.87,24.73-53.39-14.43-74.66,12.48-14.82,14.72-10.35,27.94-2.91,43.79Z"/>
    <path d="M422.4,195.34c.08,2.61-14.42-8.48-14.5-5.87-2.93,97.45-56.53,255.5-200.31,249.68-33.17-1.34-54.95-18.53-68.76-41.57-16.81-25.88-29.35-63.44-34.39-93.11l124.53-84.04c4.13,10.29,7.29,21.88,6.61,35.51-1.2,24.17-17.98,60.52-66.23,71.49-40.29,9.15-22.44,62.33,13.5,71.91,179.49,47.82,227.55-185.95,216.7-211.06-1.02-2.36-18.02,7.17-17.51,4.82,4.64-21.54,23.31-42.46,23.31-42.46,6.77,8.14,16.66,32.53,17.05,44.7Z"/>
  </g>
</svg>